<svg xmlns="http://www.w3.org/2000/svg" xmlns:xlink="http://www.w3.org/1999/xlink" version="1.1" width="256" height="256" viewBox="0 0 256 256" xml:space="preserve">

<defs>
</defs>
<g style="stroke: none; stroke-width: 0; stroke-dasharray: none; stroke-linecap: butt; stroke-linejoin: miter; stroke-miterlimit: 10; fill: none; fill-rule: nonzero; opacity: 1;" transform="translate(1.4065934065934016 1.4065934065934016) scale(2.81 2.81)" >
	<path d="M 70.018 43.472 l -44.942 27.59 c -2.417 1.484 -5.58 0.727 -7.064 -1.69 L 1.757 42.894 c -1.484 -2.417 -0.727 -5.58 1.69 -7.064 L 48.389 8.24 c 2.417 -1.484 5.58 -0.727 7.064 1.69 l 16.255 26.478 C 73.192 38.825 72.436 41.988 70.018 43.472 z" style="stroke: none; stroke-width: 1; stroke-dasharray: none; stroke-linecap: butt; stroke-linejoin: miter; stroke-miterlimit: 10; fill: rgb(255,208,102); fill-rule: nonzero; opacity: 1;" transform=" matrix(1 0 0 1 0 0) " stroke-linecap="round" />
	<rect x="1.86" y="29.67" rx="0" ry="0" width="63.01" height="8.97" style="stroke: none; stroke-width: 1; stroke-dasharray: none; stroke-linecap: butt; stroke-linejoin: miter; stroke-miterlimit: 10; fill: rgb(235,235,241); fill-rule: nonzero; opacity: 1;" transform=" matrix(0.8522 -0.5232 0.5232 0.8522 -12.9413 22.5021) "/>
	<path d="M 22.4 72.824 c -0.479 0 -0.961 -0.057 -1.439 -0.171 c -1.594 -0.382 -2.944 -1.361 -3.802 -2.758 L 0.905 43.417 c -1.77 -2.883 -0.864 -6.67 2.019 -8.439 l 44.942 -27.59 c 2.885 -1.77 6.669 -0.864 8.44 2.019 l 16.255 26.478 c 1.77 2.884 0.863 6.67 -2.02 8.44 l -44.942 27.59 C 24.621 72.515 23.52 72.824 22.4 72.824 z M 51.069 8.482 c -0.737 0 -1.483 0.197 -2.156 0.61 L 3.97 36.682 c -0.941 0.578 -1.602 1.488 -1.858 2.563 s -0.08 2.185 0.498 3.127 l 16.255 26.477 c 0.578 0.942 1.488 1.603 2.563 1.859 c 1.074 0.258 2.185 0.081 3.126 -0.498 l 44.942 -27.59 c 0 0 0 0 0 0 c 1.943 -1.192 2.555 -3.744 1.361 -5.689 L 54.601 10.453 C 53.821 9.183 52.461 8.482 51.069 8.482 z" style="stroke: none; stroke-width: 1; stroke-dasharray: none; stroke-linecap: butt; stroke-linejoin: miter; stroke-miterlimit: 10; fill: rgb(0,0,0); fill-rule: nonzero; opacity: 1;" transform=" matrix(1 0 0 1 0 0) " stroke-linecap="round" />
	<path d="M 8.86 55.464 c -0.078 0 -0.156 -0.009 -0.233 -0.027 c -0.258 -0.062 -0.48 -0.224 -0.619 -0.449 l -4.693 -7.646 c -0.289 -0.471 -0.142 -1.087 0.329 -1.376 l 53.695 -32.964 c 0.228 -0.14 0.501 -0.181 0.756 -0.121 c 0.258 0.062 0.481 0.224 0.62 0.45 l 4.693 7.646 c 0.289 0.471 0.142 1.086 -0.329 1.375 L 9.383 55.316 C 9.224 55.413 9.043 55.464 8.86 55.464 z M 5.542 47.147 l 3.647 5.942 l 51.992 -31.918 l -3.648 -5.941 L 5.542 47.147 z" style="stroke: none; stroke-width: 1; stroke-dasharray: none; stroke-linecap: butt; stroke-linejoin: miter; stroke-miterlimit: 10; fill: rgb(0,0,0); fill-rule: nonzero; opacity: 1;" transform=" matrix(1 0 0 1 0 0) " stroke-linecap="round" />
	<path d="M 57.034 38.493 c -0.336 0 -0.664 -0.169 -0.854 -0.477 c -0.289 -0.471 -0.142 -1.087 0.329 -1.376 l 5.198 -3.191 c 0.47 -0.29 1.086 -0.142 1.376 0.329 c 0.289 0.471 0.142 1.087 -0.329 1.376 l -5.198 3.191 C 57.394 38.445 57.213 38.493 57.034 38.493 z" style="stroke: none; stroke-width: 1; stroke-dasharray: none; stroke-linecap: butt; stroke-linejoin: miter; stroke-miterlimit: 10; fill: rgb(0,0,0); fill-rule: nonzero; opacity: 1;" transform=" matrix(1 0 0 1 0 0) " stroke-linecap="round" />
	<path d="M 83.864 82.517 H 31.129 c -2.837 0 -5.136 -2.3 -5.136 -5.136 V 46.312 c 0 -2.837 2.3 -5.136 5.136 -5.136 h 52.735 c 2.837 0 5.136 2.3 5.136 5.136 v 31.069 C 89 80.218 86.7 82.517 83.864 82.517 z" style="stroke: none; stroke-width: 1; stroke-dasharray: none; stroke-linecap: butt; stroke-linejoin: miter; stroke-miterlimit: 10; fill: rgb(87,179,254); fill-rule: nonzero; opacity: 1;" transform=" matrix(1 0 0 1 0 0) " stroke-linecap="round" />
	<rect x="25.99" y="50.92" rx="0" ry="0" width="63.01" height="8.97" style="stroke: none; stroke-width: 1; stroke-dasharray: none; stroke-linecap: butt; stroke-linejoin: miter; stroke-miterlimit: 10; fill: rgb(235,235,241); fill-rule: nonzero; opacity: 1;" transform=" matrix(1 0 0 1 0 0) "/>
	<path d="M 83.864 83.517 H 31.129 c -3.383 0 -6.136 -2.753 -6.136 -6.136 V 46.312 c 0 -3.383 2.753 -6.136 6.136 -6.136 h 52.735 c 3.383 0 6.136 2.753 6.136 6.136 v 31.069 C 90 80.764 87.247 83.517 83.864 83.517 z M 31.129 42.176 c -2.281 0 -4.136 1.856 -4.136 4.136 v 31.069 c 0 2.28 1.856 4.136 4.136 4.136 h 52.735 c 2.28 0 4.136 -1.856 4.136 -4.136 V 46.312 c 0 -2.281 -1.856 -4.136 -4.136 -4.136 H 31.129 z" style="stroke: none; stroke-width: 1; stroke-dasharray: none; stroke-linecap: butt; stroke-linejoin: miter; stroke-miterlimit: 10; fill: rgb(0,0,0); fill-rule: nonzero; opacity: 1;" transform=" matrix(1 0 0 1 0 0) " stroke-linecap="round" />
	<path d="M 89 60.888 H 25.993 c -0.552 0 -1 -0.447 -1 -1 v -8.971 c 0 -0.553 0.448 -1 1 -1 H 89 c 0.553 0 1 0.447 1 1 v 8.971 C 90 60.44 89.553 60.888 89 60.888 z M 26.993 58.888 H 88 v -6.971 H 26.993 V 58.888 z" style="stroke: none; stroke-width: 1; stroke-dasharray: none; stroke-linecap: butt; stroke-linejoin: miter; stroke-miterlimit: 10; fill: rgb(0,0,0); fill-rule: nonzero; opacity: 1;" transform=" matrix(1 0 0 1 0 0) " stroke-linecap="round" />
	<path d="M 60.546 71.628 H 32.967 c -0.552 0 -1 -0.447 -1 -1 s 0.448 -1 1 -1 h 27.579 c 0.553 0 1 0.447 1 1 S 61.099 71.628 60.546 71.628 z" style="stroke: none; stroke-width: 1; stroke-dasharray: none; stroke-linecap: butt; stroke-linejoin: miter; stroke-miterlimit: 10; fill: rgb(0,0,0); fill-rule: nonzero; opacity: 1;" transform=" matrix(1 0 0 1 0 0) " stroke-linecap="round" />
	<path d="M 82.026 71.628 h -6.1 c -0.553 0 -1 -0.447 -1 -1 s 0.447 -1 1 -1 h 6.1 c 0.553 0 1 0.447 1 1 S 82.579 71.628 82.026 71.628 z" style="stroke: none; stroke-width: 1; stroke-dasharray: none; stroke-linecap: butt; stroke-linejoin: miter; stroke-miterlimit: 10; fill: rgb(0,0,0); fill-rule: nonzero; opacity: 1;" transform=" matrix(1 0 0 1 0 0) " stroke-linecap="round" />
</g>
</svg>